<?xml version="1.0" encoding="UTF-8" standalone="no"?>
<!-- Created with Inkscape (http://www.inkscape.org/) -->

<svg
   xmlns:dc="http://purl.org/dc/elements/1.1/"
   xmlns:cc="http://creativecommons.org/ns#"
   xmlns:rdf="http://www.w3.org/1999/02/22-rdf-syntax-ns#"
   xmlns:svg="http://www.w3.org/2000/svg"
   xmlns="http://www.w3.org/2000/svg"
   xmlns:sodipodi="http://sodipodi.sourceforge.net/DTD/sodipodi-0.dtd"
   xmlns:inkscape="http://www.inkscape.org/namespaces/inkscape"
   width="64"
   height="40"
   viewBox="0 0 60.000006 37.5"
   id="svg2"
   version="1.1"
   inkscape:version="0.92.3 (2405546, 2018-03-11)"
   sodipodi:docname="grey-cloud-2.svg"
   inkscape:export-filename="/home/rs/apps/scuba_max/res/images/cloud_02.png"
   inkscape:export-xdpi="96"
   inkscape:export-ydpi="96">
  <defs
     id="defs4">
    <clipPath
       id="clipEmfPath1-1"
       clipPathUnits="userSpaceOnUse">
      <path
         inkscape:connector-curvature="0"
         id="path6104"
         d="M 0.894959,2.68488 H 532.501 V 447.48 H 0.894959 Z" />
    </clipPath>
  </defs>
  <sodipodi:namedview
     id="base"
     pagecolor="#ffffff"
     bordercolor="#666666"
     borderopacity="1.0"
     inkscape:pageopacity="0.0"
     inkscape:pageshadow="2"
     inkscape:zoom="11.515625"
     inkscape:cx="32"
     inkscape:cy="20"
     inkscape:document-units="px"
     inkscape:current-layer="layer1"
     showgrid="false"
     fit-margin-top="0"
     fit-margin-left="0"
     fit-margin-right="0"
     fit-margin-bottom="0"
     inkscape:window-width="1366"
     inkscape:window-height="713"
     inkscape:window-x="0"
     inkscape:window-y="27"
     inkscape:window-maximized="1"
     units="px" />
  <metadata
     id="metadata7">
    <rdf:RDF>
      <cc:Work
         rdf:about="">
        <dc:format>image/svg+xml</dc:format>
        <dc:type
           rdf:resource="http://purl.org/dc/dcmitype/StillImage" />
        <dc:title></dc:title>
      </cc:Work>
    </rdf:RDF>
  </metadata>
  <g
     inkscape:label="Layer 1"
     inkscape:groupmode="layer"
     id="layer1"
     transform="translate(-311.74783,-675.3832)"
     sodipodi:insensitive="true">
    <g
       id="g1679"
       transform="translate(6.9564203e-7,-1.2006332e-6)">
      <path
         style="fill:#ffffff;fill-opacity:1;fill-rule:evenodd;stroke:none"
         d="m 339.3467,695.43147 c -4.76738,0.63144 -8.2561,3.91496 -7.81411,7.34051 0.45779,3.40981 4.68847,5.68314 9.45588,5.03572 4.7675,-0.63133 8.25605,-3.9149 7.79828,-7.32468 -0.45776,-3.42558 -4.67275,-5.68299 -9.44005,-5.05155 z"
         id="path6141"
         inkscape:connector-curvature="0" />
      <path
         style="fill:none;stroke:#000000;stroke-width:0.67880154px;stroke-linecap:butt;stroke-linejoin:round;stroke-miterlimit:4;stroke-dasharray:none;stroke-opacity:1"
         d="m 339.3467,695.43147 c -4.76738,0.63144 -8.2561,3.91496 -7.81411,7.34051 0.45779,3.40981 4.68847,5.68314 9.45588,5.03572 4.7675,-0.63133 8.25605,-3.9149 7.79828,-7.32468 -0.45776,-3.42558 -4.67275,-5.68299 -9.44005,-5.05155"
         id="path6143"
         inkscape:connector-curvature="0" />
      <path
         style="fill:#ffffff;fill-opacity:1;fill-rule:evenodd;stroke:none"
         d="m 351.53362,693.26877 c -5.57247,0.74194 -9.72427,4.1991 -9.25071,7.7194 0.4578,3.5203 5.36734,5.77757 10.95562,5.03575 5.57248,-0.74194 9.72425,-4.1991 9.26648,-7.7194 -0.47357,-3.52027 -5.3831,-5.77768 -10.97139,-5.03575 z"
         id="path6145"
         inkscape:connector-curvature="0" />
      <path
         style="fill:none;stroke:#000000;stroke-width:0.67880154px;stroke-linecap:butt;stroke-linejoin:round;stroke-miterlimit:4;stroke-dasharray:none;stroke-opacity:1"
         d="m 351.53362,693.26877 c -5.57247,0.74194 -9.72427,4.1991 -9.25071,7.7194 0.4578,3.5203 5.36734,5.77757 10.95562,5.03575 5.57248,-0.74194 9.72425,-4.1991 9.26648,-7.7194 -0.47357,-3.52027 -5.3831,-5.77768 -10.97139,-5.03575"
         id="path6147"
         inkscape:connector-curvature="0" />
      <path
         style="fill:#ffffff;fill-opacity:1;fill-rule:evenodd;stroke:none"
         d="m 322.81867,688.78553 c -2.22583,3.93074 -1.29444,8.66657 2.06798,10.5609 3.36245,1.87852 7.89305,0.22098 10.10311,-3.70976 2.22583,-3.94651 1.29444,-8.66653 -2.06799,-10.56087 -3.36242,-1.89433 -7.89305,-0.23681 -10.1031,3.70973 z"
         id="path6149"
         inkscape:connector-curvature="0" />
      <path
         style="fill:none;stroke:#000000;stroke-width:0.67880154px;stroke-linecap:butt;stroke-linejoin:round;stroke-miterlimit:4;stroke-dasharray:none;stroke-opacity:1"
         d="m 322.81867,688.78553 c -2.22583,3.93074 -1.29444,8.66657 2.06798,10.5609 3.36245,1.87852 7.89305,0.22098 10.10311,-3.70976 2.22583,-3.94651 1.29444,-8.66653 -2.06799,-10.56087 -3.36242,-1.89433 -7.89305,-0.23681 -10.1031,3.70973"
         id="path6151"
         inkscape:connector-curvature="0" />
      <path
         style="fill:#ffffff;fill-opacity:1;fill-rule:evenodd;stroke:none"
         d="m 336.75779,680.48205 c -4.23068,0.71037 -7.18266,4.16751 -6.5828,7.70362 0.59989,3.53607 4.51482,5.82504 8.76128,5.11468 4.23059,-0.72616 7.18264,-4.16754 6.58292,-7.70362 -0.60001,-3.55185 -4.51494,-5.84084 -8.7614,-5.11468 z"
         id="path6153"
         inkscape:connector-curvature="0" />
      <path
         style="fill:none;stroke:#000000;stroke-width:2.40520239px;stroke-linecap:butt;stroke-linejoin:round;stroke-miterlimit:4;stroke-dasharray:none;stroke-opacity:1"
         clip-path="url(#clipEmfPath1-1)"
         d="M 77.6377,7.0478 C 62.6471,9.56487 52.1873,21.8146 54.3128,34.3441 56.4384,46.8735 70.3102,54.984 85.3567,52.467 100.347,49.894 110.807,37.7001 108.682,25.1707 106.556,12.5854 92.6842,4.4748 77.6377,7.0478"
         id="path6155"
         inkscape:connector-curvature="0"
         transform="matrix(0.28222222,0,0,0.28222222,314.84671,678.493)" />
      <path
         style="fill:#ffffff;fill-opacity:1;fill-rule:evenodd;stroke:none"
         d="m 359.80556,686.95433 c -4.05723,0 -7.35641,2.54158 -7.35641,5.683 0,3.14144 3.29918,5.68299 7.35641,5.68299 4.07275,0 7.37192,-2.54155 7.37192,-5.68299 0,-3.14142 -3.29917,-5.683 -7.37192,-5.683 z"
         id="path6157"
         inkscape:connector-curvature="0" />
      <path
         style="fill:none;stroke:#000000;stroke-width:0.67880154px;stroke-linecap:butt;stroke-linejoin:round;stroke-miterlimit:4;stroke-dasharray:none;stroke-opacity:1"
         d="m 359.80556,686.95433 c -4.05723,0 -7.35641,2.54158 -7.35641,5.683 0,3.14144 3.29918,5.68299 7.35641,5.68299 4.07275,0 7.37192,-2.54155 7.37192,-5.68299 0,-3.14142 -3.29917,-5.683 -7.37192,-5.683"
         id="path6159"
         inkscape:connector-curvature="0" />
      <path
         style="fill:#ffffff;fill-opacity:1;fill-rule:evenodd;stroke:none"
         d="m 352.21237,682.3606 c -6.10927,0 -11.06605,2.28896 -11.06605,5.13046 0,2.8415 4.95678,5.13049 11.06605,5.13049 6.10926,0 11.06593,-2.28899 11.06593,-5.13049 0,-2.8415 -4.95667,-5.13046 -11.06593,-5.13046 z"
         id="path6161"
         inkscape:connector-curvature="0" />
      <path
         style="fill:none;stroke:#000000;stroke-width:0.67880154px;stroke-linecap:butt;stroke-linejoin:round;stroke-miterlimit:4;stroke-dasharray:none;stroke-opacity:1"
         d="m 352.21237,682.3606 c -6.10927,0 -11.06605,2.28896 -11.06605,5.13046 0,2.8415 4.95678,5.13049 11.06605,5.13049 6.10926,0 11.06593,-2.28899 11.06593,-5.13049 0,-2.8415 -4.95667,-5.13046 -11.06593,-5.13046"
         id="path6163"
         inkscape:connector-curvature="0" />
      <path
         style="fill:#ffffff;fill-opacity:1;fill-rule:evenodd;stroke:none"
         d="m 321.68208,691.37444 c -3.39401,0.45779 -5.7777,3.67815 -5.30412,7.19844 0.47358,3.5203 3.59924,5.99872 6.99324,5.55671 3.39401,-0.4578 5.77771,-3.67815 5.30412,-7.19845 -0.47357,-3.5203 -3.59924,-5.99872 -6.99324,-5.5567 z"
         id="path6165"
         inkscape:connector-curvature="0" />
      <path
         style="fill:none;stroke:#000000;stroke-width:2.40520239px;stroke-linecap:butt;stroke-linejoin:round;stroke-miterlimit:4;stroke-dasharray:none;stroke-opacity:1"
         clip-path="url(#clipEmfPath1-1)"
         d="M 24.2198,45.6429 C 12.1938,47.265 3.74764,58.6757 5.42569,71.1492 7.10374,83.6227 18.1789,92.4045 30.2049,90.8383 42.2309,89.2162 50.6771,77.8055 48.999,65.332 47.321,52.8585 36.2458,44.0767 24.2198,45.6429"
         id="path6167"
         inkscape:connector-curvature="0"
         transform="matrix(0.28222222,0,0,0.28222222,314.84671,678.493)" />
      <path
         style="fill:#ffffff;fill-opacity:1;fill-rule:evenodd;stroke:none"
         d="m 328.0281,697.37316 c -3.75709,0.50515 -6.51968,3.12564 -6.1566,5.84084 0.34731,2.7152 3.70976,4.51496 7.46684,4.02559 3.77286,-0.50518 6.53542,-3.11 6.17234,-5.84098 -0.36308,-2.71521 -3.70972,-4.51483 -7.48258,-4.02545 z"
         id="path6169"
         inkscape:connector-curvature="0" />
      <path
         style="fill:none;stroke:#000000;stroke-width:0.67880154px;stroke-linecap:butt;stroke-linejoin:round;stroke-miterlimit:4;stroke-dasharray:none;stroke-opacity:1"
         d="m 328.0281,697.37316 c -3.75709,0.50515 -6.51968,3.12564 -6.1566,5.84084 0.34731,2.7152 3.70976,4.51496 7.46684,4.02559 3.77286,-0.50518 6.53542,-3.11 6.17234,-5.84098 -0.36308,-2.71521 -3.70972,-4.51483 -7.48258,-4.02545"
         id="path6171"
         inkscape:connector-curvature="0" />
      <path
         style="fill:#ffffff;fill-opacity:1;fill-rule:evenodd;stroke:none"
         d="m 338.85733,686.29134 c -11.20812,2.25741 -19.52738,7.94037 -18.56441,12.69198 0.96294,4.73583 10.81346,6.75646 22.02158,4.49905 11.20823,-2.27319 19.52729,-7.95619 18.56435,-12.69202 -0.96294,-4.7516 -10.81335,-6.77223 -22.02152,-4.49901 z"
         id="path6173"
         inkscape:connector-curvature="0" />
    </g>
  </g>
</svg>
