<?xml version="1.0" encoding="UTF-8" standalone="no"?>
<!-- Created with Inkscape (http://www.inkscape.org/) -->

<svg
   xmlns:dc="http://purl.org/dc/elements/1.1/"
   xmlns:cc="http://creativecommons.org/ns#"
   xmlns:rdf="http://www.w3.org/1999/02/22-rdf-syntax-ns#"
   xmlns:svg="http://www.w3.org/2000/svg"
   xmlns="http://www.w3.org/2000/svg"
   xmlns:sodipodi="http://sodipodi.sourceforge.net/DTD/sodipodi-0.dtd"
   xmlns:inkscape="http://www.inkscape.org/namespaces/inkscape"
   width="100"
   height="100"
   viewBox="0 0 100 100"
   version="1.1"
   id="svg828"
   inkscape:version="0.92.3 (2405546, 2018-03-11)"
   sodipodi:docname="ground_item_01.svg"
   inkscape:export-filename="/home/rs/apps/scuba_max/res/images/ground_item_01.png"
   inkscape:export-xdpi="96"
   inkscape:export-ydpi="96">
  <defs
     id="defs822" />
  <sodipodi:namedview
     id="base"
     pagecolor="#ffffff"
     bordercolor="#666666"
     borderopacity="1.0"
     inkscape:pageopacity="0.0"
     inkscape:pageshadow="2"
     inkscape:zoom="5.32"
     inkscape:cx="50"
     inkscape:cy="50"
     inkscape:document-units="px"
     inkscape:current-layer="layer1"
     showgrid="true"
     units="px"
     inkscape:window-width="1366"
     inkscape:window-height="713"
     inkscape:window-x="0"
     inkscape:window-y="27"
     inkscape:window-maximized="1"
     fit-margin-top="0"
     fit-margin-left="0"
     fit-margin-right="0"
     fit-margin-bottom="0"
     gridtolerance="10">
    <inkscape:grid
       type="xygrid"
       id="grid1376"
       originx="-112.80121"
       originy="-9.2574666" />
  </sodipodi:namedview>
  <metadata
     id="metadata825">
    <rdf:RDF>
      <cc:Work
         rdf:about="">
        <dc:format>image/svg+xml</dc:format>
        <dc:type
           rdf:resource="http://purl.org/dc/dcmitype/StillImage" />
        <dc:title />
        <cc:license
           rdf:resource="http://creativecommons.org/licenses/by-sa/4.0/" />
      </cc:Work>
      <cc:License
         rdf:about="http://creativecommons.org/licenses/by-sa/4.0/">
        <cc:permits
           rdf:resource="http://creativecommons.org/ns#Reproduction" />
        <cc:permits
           rdf:resource="http://creativecommons.org/ns#Distribution" />
        <cc:requires
           rdf:resource="http://creativecommons.org/ns#Notice" />
        <cc:requires
           rdf:resource="http://creativecommons.org/ns#Attribution" />
        <cc:permits
           rdf:resource="http://creativecommons.org/ns#DerivativeWorks" />
        <cc:requires
           rdf:resource="http://creativecommons.org/ns#ShareAlike" />
      </cc:License>
    </rdf:RDF>
  </metadata>
  <g
     inkscape:groupmode="layer"
     id="layer2"
     inkscape:label="algues 0"
     transform="translate(-112.80121,9.2574685)"
     sodipodi:insensitive="true">
    <path
       inkscape:connector-curvature="0"
       id="path1390"
       d="m 150.62955,56.460591 -4.28572,-11.666667 4.28572,-7.777777 -8.57143,-11.666667 12.85714,-7.777778 m -12.85714,7.777778 -4.28572,-7.777778 4.28572,-7.7777777 m 4.28571,34.9999997 -8.57143,-3.888889 v -7.777777 l -8.57143,-3.888889 -4.28571,-7.777778 m 4.28571,7.777778 4.28572,-7.777778"
       style="fill:none;stroke:#20851f;stroke-width:2.6944387;stroke-linecap:round;stroke-linejoin:round;stroke-miterlimit:4;stroke-dasharray:2.69443872, 2.69443872;stroke-dashoffset:33;stroke-opacity:1"
       sodipodi:nodetypes="ccccc" />
    <path
       sodipodi:nodetypes="cccccccccccccc"
       style="opacity:1;fill:none;stroke:#27a126;stroke-width:2.44960642;stroke-linecap:round;stroke-linejoin:round;stroke-miterlimit:4;stroke-dasharray:2.44960627, 2.44960627;stroke-dashoffset:30;stroke-opacity:1"
       d="m 173.67813,51.82143 10.9201,-6.579681 2.33582,-9.039317 8.2689,-3.455883 8.58428,2.459636 m -14.20201,-2.127554 7.95356,-9.371399 -3.28192,-8.707234 m -10,25 -5.90709,-6.257201 -3.28191,-8.707234 -0.31537,-5.915519 m 3.59728,14.622753 4.98699,-12.163118"
       id="path1392"
       inkscape:connector-curvature="0" />
  </g>
  <g
     inkscape:label="rocher"
     inkscape:groupmode="layer"
     id="layer1"
     transform="translate(-112.80121,-261.28418)"
     sodipodi:insensitive="true">
    <g
       id="g1385"
       transform="translate(7.7724035,-6.8727417)">
      <path
         sodipodi:nodetypes="ssccssssccsssss"
         inkscape:connector-curvature="0"
         id="path1378"
         d="m 192.80121,339.92733 c 0,2.76142 -1.11929,5.39214 -3.1434,7.7849 -2.02411,2.39277 -6.03852,1.01978 -9.65781,2.82942 -8.57583,6.44968 -15.55944,10.61487 -25.57057,10.74253 -5.52284,0 -10.24153,-4.35883 -15.02706,-5.37088 -4.78554,-1.01206 -11.26614,-0.0342 -14.88543,-1.84383 -3.61929,-1.80965 -6.54822,-3.96447 -8.57233,-6.35724 -2.02411,-2.39276 -3.1434,-5.02348 -3.1434,-7.7849 0,-2.76142 1.11929,-5.39214 3.1434,-7.7849 8.1881,-9.94209 12.95866,-4.63597 19.11583,-5.75873 4.78554,-1.01206 12.21792,-6.45637 17.74077,-6.45637 5.52285,0 10.78427,0.55964 15.56981,1.5717 4.78553,1.01205 9.09517,2.47652 12.71446,4.28616 3.61929,1.80965 6.54822,3.96447 8.57233,6.35724 2.02411,2.39276 3.1434,5.02348 3.1434,7.7849 z"
         style="opacity:1;fill:#998866;fill-opacity:1;fill-rule:nonzero;stroke:none;stroke-width:1;stroke-linecap:butt;stroke-linejoin:miter;stroke-miterlimit:4;stroke-dasharray:none;stroke-opacity:1;paint-order:normal" />
      <path
         style="opacity:1;fill:#847658;fill-opacity:1;fill-rule:nonzero;stroke:none;stroke-width:1;stroke-linecap:butt;stroke-linejoin:miter;stroke-miterlimit:4;stroke-dasharray:none;stroke-opacity:1;paint-order:normal"
         d="m 192.80121,339.92733 c 0,2.76142 -1.11929,5.39214 -3.1434,7.7849 -2.02411,2.39277 -6.03852,1.01978 -9.65781,2.82942 -8.57583,6.44968 -15.55944,10.61487 -25.57057,10.74253 -5.52284,0 -10.24153,-4.35883 -15.02706,-5.37088 -4.78554,-1.01206 -11.26614,-0.0342 -14.88543,-1.84383 -3.61929,-1.80965 -6.54822,-3.96447 -8.57233,-6.35724 -1.49804,-4.19595 11.23003,8.36154 24.05539,2.82942 4.78554,-1.01206 12.27158,2.49287 17.79443,2.49287 5.52285,0 12.03257,-6.22462 16.81811,-5.21256 C 185,345.54165 189,345.54165 192.80121,339.92733 Z"
         id="path1381"
         inkscape:connector-curvature="0"
         sodipodi:nodetypes="csccssccscc" />
    </g>
    <path
       style="fill:#847658;fill-opacity:1;stroke:none;stroke-width:0.67003173px;stroke-linecap:butt;stroke-linejoin:miter;stroke-opacity:1"
       d="m 154.25686,320.54165 c -3.61232,2.86927 -6.40591,2.16353 -5.97728,3.3348 0.50214,1.37221 3.04865,2.67765 6.321,1.97381 3.30606,-0.9551 2.5973,-7.64467 -0.34372,-5.30861 z"
       id="path1480"
       inkscape:connector-curvature="0"
       sodipodi:nodetypes="sscs" />
  </g>
  <g
     inkscape:groupmode="layer"
     id="layer3"
     inkscape:label="algues 1"
     transform="translate(-112.80121,9.2574685)"
     sodipodi:insensitive="true">
    <path
       inkscape:connector-curvature="0"
       id="path1468"
       d="m 166.7724,54.627258 6,-16.5 -6,-11 6,-11 12,-5.5 m -18,11 V 5.1272583 l -12,-5.50000003 m 18,38.49999973 -18,-5.5 -12,-4.5 -5,-5 m 20,10 -5,-10 5,-10"
       style="fill:none;stroke:#31d030;stroke-width:4;stroke-linecap:round;stroke-linejoin:round;stroke-miterlimit:4;stroke-dasharray:8, 4;stroke-dashoffset:40;stroke-opacity:1"
       sodipodi:nodetypes="ccccccccccccccc" />
  </g>
</svg>
